<?xml version="1.0" encoding="utf-8"?>
<!-- Generator: Adobe Illustrator 21.1.0, SVG Export Plug-In . SVG Version: 6.00 Build 0)  -->
<svg version="1.1" id="Layer_1" xmlns="http://www.w3.org/2000/svg" xmlns:xlink="http://www.w3.org/1999/xlink" x="0px" y="0px"
	 viewBox="0 0 323.6 3.6" style="enable-background:new 0 0 323.6 3.6;" xml:space="preserve">
<style type="text/css">
	.st0{fill:#FFFFFF;}
</style>
<circle class="st0" cx="1.8" cy="1.8" r="1.8"/>
<circle class="st0" cx="11.8" cy="1.8" r="1.8"/>
<circle class="st0" cx="21.8" cy="1.8" r="1.8"/>
<circle class="st0" cx="31.8" cy="1.8" r="1.8"/>
<circle class="st0" cx="41.8" cy="1.8" r="1.8"/>
<circle class="st0" cx="51.8" cy="1.8" r="1.8"/>
<circle class="st0" cx="61.8" cy="1.8" r="1.8"/>
<circle class="st0" cx="71.8" cy="1.8" r="1.8"/>
<circle class="st0" cx="81.8" cy="1.8" r="1.8"/>
<circle class="st0" cx="91.8" cy="1.8" r="1.8"/>
<circle class="st0" cx="101.8" cy="1.8" r="1.8"/>
<circle class="st0" cx="111.8" cy="1.8" r="1.8"/>
<circle class="st0" cx="121.8" cy="1.8" r="1.8"/>
<circle class="st0" cx="131.8" cy="1.8" r="1.8"/>
<circle class="st0" cx="141.8" cy="1.8" r="1.8"/>
<circle class="st0" cx="151.8" cy="1.8" r="1.8"/>
<circle class="st0" cx="161.8" cy="1.8" r="1.8"/>
<circle class="st0" cx="171.8" cy="1.8" r="1.8"/>
<circle class="st0" cx="181.8" cy="1.8" r="1.8"/>
<circle class="st0" cx="191.8" cy="1.8" r="1.8"/>
<circle class="st0" cx="201.8" cy="1.8" r="1.8"/>
<circle class="st0" cx="211.8" cy="1.8" r="1.8"/>
<circle class="st0" cx="221.8" cy="1.8" r="1.8"/>
<circle class="st0" cx="231.8" cy="1.8" r="1.8"/>
<circle class="st0" cx="241.8" cy="1.8" r="1.8"/>
<circle class="st0" cx="251.8" cy="1.8" r="1.8"/>
<circle class="st0" cx="261.8" cy="1.8" r="1.8"/>
<circle class="st0" cx="271.8" cy="1.8" r="1.8"/>
<circle class="st0" cx="281.8" cy="1.8" r="1.8"/>
<circle class="st0" cx="291.8" cy="1.8" r="1.8"/>
<circle class="st0" cx="301.8" cy="1.8" r="1.8"/>
<circle class="st0" cx="311.8" cy="1.8" r="1.8"/>
<circle class="st0" cx="321.8" cy="1.8" r="1.8"/>
</svg>
